<?xml version="1.0" encoding="UTF-8"?>
<svg width="205px" height="60px" viewBox="0 0 205 60" version="1.1" xmlns="http://www.w3.org/2000/svg" xmlns:xlink="http://www.w3.org/1999/xlink">
    <!-- Generator: Sketch 53.1 (72631) - https://sketchapp.com -->
    <title>ohana-logo-icon</title>
    <desc>Created with Sketch.</desc>
    <defs>
        <linearGradient x1="56.5991889%" y1="120.257063%" x2="50%" y2="61.5779462%" id="linearGradient-1">
            <stop stop-color="#FD9119" offset="0%"></stop>
            <stop stop-color="#F73486" offset="100%"></stop>
        </linearGradient>
    </defs>
    <g id="Page-1" stroke="none" stroke-width="1" fill="none" fill-rule="evenodd">
        <g id="1---Home" transform="translate(-32.000000, -3066.000000)">
            <g id="footer" transform="translate(0.000000, 3018.000000)">
                <g id="ohana-logo-icon" transform="translate(32.000000, 48.000000)">
                    <path d="M202.797328,15.4342157 C203.846859,16.5519017 204.5,18.0654342 204.5,19.7186727 L204.5,33.7479842 C204.5,37.1824571 201.68952,40 198.237629,40 L178.76239,40 C175.322154,40 172.5,37.1941674 172.5,33.7479842 L172.5,19.7186727 C172.5,18.0887247 173.141389,16.5868283 174.179289,15.4691422 C174.214275,15.4225797 174.24926,15.3876532 174.295907,15.3410721 C175.26384,14.3398202 177.701166,11.8483263 179.706987,9.79924142 L184.849839,4.53681369 C186.855678,2.48772877 190.144322,2.48772877 192.150086,4.53681369 L197.281377,9.78758685 C199.28716,11.8366718 201.724523,14.3281842 202.704048,15.3294361 C202.739051,15.3643626 202.774054,15.3992891 202.797328,15.4342157 Z M188.5,32.1529627 C191.800243,32.1529627 194.48244,29.4752003 194.48244,26.180322 C194.48244,22.8854437 191.800243,20.2076627 188.5,20.2076627 C185.199702,20.2076627 182.517485,22.8854437 182.517485,26.180322 C182.517485,29.4752003 185.199702,32.1529627 188.5,32.1529627 Z M188.5,60 C185.186302,60 182.5,57.3136976 182.5,54 C182.5,50.6862837 185.186302,48 188.5,48 C191.813716,48 194.5,50.6862837 194.5,54 C194.5,57.3136976 191.813716,60 188.5,60 Z" id="Combined-Shape" fill="url(#linearGradient-1)" fill-rule="nonzero"></path>
                    <path d="M24.4410023,36.6569254 C21.723654,39.5600965 18.4214096,41 14.5114962,41 C10.6015645,41 7.28789709,39.5484144 4.5818986,36.6569254 C1.85299193,33.7537543 0.5,30.2014772 0.5,25.9999812 C0.5,21.7985605 1.85299193,18.2462457 4.57043902,15.3430369 C7.28789709,12.4516119 10.5901049,11 14.5000183,11 C18.4099317,11 21.723654,12.4516119 24.4296525,15.3430369 C27.1470008,18.2344507 28.5,21.7867654 28.5,25.9999812 C28.5,30.2131592 27.1470008,33.7537543 24.4410023,36.6569254 Z M10.1658625,30.8268423 C11.3239391,32.0779492 12.7686516,32.7033143 14.5000183,32.7033143 C16.2199255,32.7033143 17.6646563,32.0779492 18.834229,30.8268423 C19.992269,29.5759049 20.5769638,27.9708703 20.5769638,25.9999812 C20.5769638,24.029092 19.992269,22.4240574 18.834229,21.1730824 C17.6761159,19.9220884 16.231385,19.2966103 14.5000183,19.2966103 C12.7686516,19.2966103 11.3353986,19.9220884 10.1658625,21.1730824 C9.00778595,22.4240574 8.42301788,24.029092 8.42301788,25.9999812 C8.42301788,27.9708703 9.00778595,29.5759049 10.1658625,30.8268423 Z" id="Shape" fill="#000000" fill-rule="nonzero"></path>
                    <path d="M48.7532187,10.3575476 C51.5347614,10.3575476 53.8526324,11.3759438 55.7071386,13.424321 C57.5614643,15.4726797 58.5,18.2848494 58.5,21.8955472 L58.5,39 L50.6867395,39 L50.6867395,23.1221901 C50.6867395,21.4905463 50.2570602,20.2406233 49.4090384,19.3611505 C48.5609985,18.493133 47.4755356,18.0533966 46.1525956,18.0533966 C44.6600728,18.0533966 43.4728314,18.5395085 42.6134908,19.4999076 C41.7428495,20.4604915 41.3131882,21.8955472 41.3131882,23.7934347 L41.3131882,39 L33.5,39 L33.5,0 L41.3131882,0 L41.3131882,13.7599249 C42.8735513,11.4916795 45.3497946,10.3575476 48.7532187,10.3575476 Z" id="Path" fill="#000000"></path>
                    <path d="M83.4197283,11.7907147 L91.5,11.7907147 L91.5,40.1975204 L83.4197283,40.1975204 L83.4197283,37.5302508 C81.5137767,39.8434797 78.835923,41 75.3863167,41 C71.8314713,41 68.7911527,39.5484144 66.277029,36.6569254 C63.7629053,33.7654363 62.5,30.2131592 62.5,25.9999812 C62.5,21.7867654 63.7629053,18.2462457 66.277029,15.3430369 C68.7911527,12.4516119 71.8314713,11 75.3863167,11 C78.835923,11 81.5137767,12.1565674 83.4197283,14.4697115 L83.4197283,11.7907147 Z M72.3810777,31.0510617 C73.562118,32.3021687 75.1056793,32.9275338 77.0117243,32.9275338 C78.917788,32.9275338 80.4613307,32.3021687 81.6424083,31.0510617 C82.82343,29.8001244 83.4197283,28.1124866 83.4197283,25.9999812 C83.4197283,23.8756618 82.82343,22.188024 81.6424083,20.948844 C80.4613307,19.697869 78.9060823,19.072372 77.0117243,19.072372 C75.1056793,19.072372 73.562118,19.697869 72.3810777,20.948844 C71.2000187,22.1998191 70.6036457,23.8874757 70.6036457,25.9999812 C70.6036457,28.1124866 71.1883317,29.8001244 72.3810777,31.0510617 Z" id="Shape" fill="#000000" fill-rule="nonzero"></path>
                    <path d="M112.753219,11 C115.534761,11 117.852632,12.0311124 119.707139,14.1050477 C121.561464,16.1790017 122.5,19.0262666 122.5,22.6820303 L122.5,40 L114.68674,40 L114.68674,23.9240643 C114.68674,22.271935 114.25706,21.0064797 113.409038,20.1159693 C112.560999,19.2371883 111.475536,18.7919237 110.152596,18.7919237 C108.660073,18.7919237 107.472831,19.2840494 106.613491,20.2565713 C105.74285,21.229112 105.313188,22.6820303 105.313188,24.603653 L105.313188,40 L97.5,40 L97.5,11.7967695 L105.313188,11.7967695 L105.313188,14.4448607 C106.862251,12.1482838 109.349795,11 112.753219,11 Z" id="Path" fill="#000000"></path>
                    <path d="M149.419728,11.7907147 L157.5,11.7907147 L157.5,40.1975204 L149.419728,40.1975204 L149.419728,37.5302508 C147.513777,39.8434797 144.835942,41 141.386335,41 C137.83149,41 134.791153,39.5484144 132.277029,36.6569254 C129.762913,33.7654363 128.5,30.2131592 128.5,25.9999812 C128.5,21.7867654 129.762913,18.2462457 132.277029,15.3430369 C134.791153,12.4516119 137.83149,11 141.386335,11 C144.835942,11 147.513777,12.1565674 149.419728,14.4697115 L149.419728,11.7907147 Z M138.369391,31.0510617 C139.550431,32.3021687 141.093992,32.9275338 143.000037,32.9275338 C144.906082,32.9275338 146.449662,32.3021687 147.630647,31.0510617 C148.811668,29.8001244 149.408153,28.1124866 149.408153,25.9999812 C149.408153,23.8756618 148.811668,22.188024 147.630647,20.948844 C146.449662,19.697869 144.894395,19.072372 143.000037,19.072372 C141.093992,19.072372 139.550431,19.697869 138.369391,20.948844 C137.188332,22.1998191 136.591959,23.8874757 136.591959,25.9999812 C136.591959,28.1124866 137.188332,29.8001244 138.369391,31.0510617 Z" id="Shape" fill="#000000" fill-rule="nonzero"></path>
                </g>
            </g>
        </g>
    </g>
</svg>