<?xml version="1.0" encoding="UTF-8"?>
<svg width="167px" height="47px" viewBox="0 0 167 47" version="1.1" xmlns="http://www.w3.org/2000/svg" xmlns:xlink="http://www.w3.org/1999/xlink">
    <!-- Generator: Sketch 53.2 (72643) - https://sketchapp.com -->
    <title>logo</title>
    <desc>Created with Sketch.</desc>
    <g id="Symbols" stroke="none" stroke-width="1" fill="none" fill-rule="evenodd">
        <g id="hero" transform="translate(-112.000000, -119.000000)" fill="#FFFFFF">
            <g transform="translate(0.000000, -1.000000)" id="Group-2">
                <g transform="translate(112.000000, 119.875000)">
                    <g id="logo">
                        <path d="M165.616579,11.9414861 C166.469323,12.8238698 167,14.0187638 167,15.3239522 L167,26.3997244 C167,29.1111503 164.716485,31.3355263 161.911823,31.3355263 L146.088192,31.3355263 C143.293,31.3355263 141,29.1203953 141,26.3997244 L141,15.3239522 C141,14.0371511 141.521129,12.8514434 142.364423,11.9690596 C142.392849,11.9322998 142.421274,11.9047262 142.459174,11.8679516 C143.24562,11.0774896 145.225947,9.1105208 146.855677,7.49282217 L151.034244,3.33827397 C152.663989,1.72057534 155.336011,1.72057534 156.965695,3.33827397 L161.134869,7.4836212 C162.764568,9.10131982 164.744925,11.0683033 165.540789,11.8587653 C165.569229,11.8863389 165.597669,11.9139125 165.616579,11.9414861 Z M154,25.1404969 C156.681447,25.1404969 158.860733,23.0264739 158.860733,20.4252542 C158.860733,17.8240345 156.681447,15.7099969 154,15.7099969 C151.318507,15.7099969 149.139207,17.8240345 149.139207,20.4252542 C149.139207,23.0264739 151.318507,25.1404969 154,25.1404969 Z M154,47.125 C151.307621,47.125 149.125,45.0042349 149.125,42.3881579 C149.125,39.7720661 151.307621,37.6513158 154,37.6513158 C156.692394,37.6513158 158.875,39.7720661 158.875,42.3881579 C158.875,45.0042349 156.692394,47.125 154,47.125 Z" id="Combined-Shape" fill-rule="nonzero"></path>
                        <path d="M19.6658233,27.6505403 C17.4337158,29.9730772 14.7211579,31.125 11.5094433,31.125 C8.29771371,31.125 5.57577261,29.9637316 3.35298813,27.6505403 C1.11138622,25.3280034 0,22.4861818 0,19.1249849 C0,15.7638484 1.11138622,12.9219966 3.34357491,10.5994296 C5.57577261,8.28628954 8.28830048,7.125 11.500015,7.125 C14.7117296,7.125 17.4337158,8.28628954 19.6565003,10.5994296 C21.8886078,12.9125605 23,15.7544123 23,19.1249849 C23,22.4955274 21.8886078,25.3280034 19.6658233,27.6505403 Z M7.93981563,22.9864738 C8.89109281,23.9873594 10.0778209,24.4876514 11.500015,24.4876514 C12.9127959,24.4876514 14.0995391,23.9873594 15.0602596,22.9864738 C16.0115067,21.9857239 16.4917917,20.7016962 16.4917917,19.1249849 C16.4917917,17.5482736 16.0115067,16.2642459 15.0602596,15.2634659 C14.1089523,14.2626708 12.9222091,13.7622883 11.500015,13.7622883 C10.0778209,13.7622883 8.90050603,14.2626708 7.93981563,15.2634659 C6.98853846,16.2642459 6.50819326,17.5482736 6.50819326,19.1249849 C6.50819326,20.7016962 6.98853846,21.9857239 7.93981563,22.9864738 Z" id="Shape" fill-rule="nonzero"></path>
                        <path d="M40.202575,8.35792243 C42.4278091,8.35792243 44.2821059,9.16741689 45.7657109,10.7956141 C47.2491714,12.4237967 48,14.6591111 48,17.5291529 L48,31.125 L41.7493916,31.125 L41.7493916,18.5041767 C41.7493916,17.2072291 41.4056482,16.2137005 40.7272307,15.5146324 C40.0487988,14.8246698 39.1804285,14.4751357 38.1220764,14.4751357 C36.9280582,14.4751357 35.9782651,14.8615324 35.2907926,15.6249266 C34.5942796,16.3884676 34.2505506,17.5291529 34.2505506,19.0377302 L34.2505506,31.125 L28,31.125 L28,0.125 L34.2505506,0.125 L34.2505506,11.0623762 C35.498841,9.25941191 37.4798357,8.35792243 40.202575,8.35792243 Z" id="Path"></path>
                        <path d="M68.3128786,7.75757174 L75,7.75757174 L75,31.125 L68.3128786,31.125 L68.3128786,28.3492006 C66.7355393,30.1997838 64.5193846,31.125 61.6645379,31.125 C58.722597,31.125 56.2064712,29.9637316 54.1258171,27.6505403 C52.045163,25.337349 51,22.4955274 51,19.1249849 C51,15.7544123 52.045163,12.9219966 54.1258171,10.5994296 C56.2064712,8.28628954 58.722597,7.125 61.6645379,7.125 C64.5193846,7.125 66.7355393,8.0502539 68.3128786,9.90076922 L68.3128786,7.75757174 Z M59.1774436,23.1658494 C60.1548563,24.166735 61.4322863,24.667027 63.0097029,24.667027 C64.5871349,24.667027 65.8645495,24.166735 66.8419931,23.1658494 C67.8193903,22.1650995 68.3128786,20.8149893 68.3128786,19.1249849 C68.3128786,17.4255295 67.8193903,16.0754192 66.8419931,15.0840752 C65.8645495,14.0832952 64.5774475,13.5828976 63.0097029,13.5828976 C61.4322863,13.5828976 60.1548563,14.0832952 59.1774436,15.0840752 C58.2000155,16.0848553 57.7064654,17.4349806 57.7064654,19.1249849 C57.7064654,20.8149893 58.1903435,22.1650995 59.1774436,23.1658494 Z" id="Shape" fill-rule="nonzero"></path>
                        <path d="M92.202575,8.125 C94.4278091,8.125 96.2821059,8.94277877 97.7657109,10.587624 C99.2491714,12.2324841 100,14.4906597 100,17.3900585 L100,31.125 L93.7493916,31.125 L93.7493916,18.37512 C93.7493916,17.0648105 93.4056482,16.0611736 92.7272307,15.3549067 C92.0487988,14.6579424 91.1804285,14.3048016 90.1220764,14.3048016 C88.9280582,14.3048016 87.9782651,14.6951081 87.2907926,15.4664186 C86.5942796,16.237744 86.2505506,17.3900585 86.2505506,18.9141041 L86.2505506,31.125 L80,31.125 L80,8.75692063 L86.2505506,8.75692063 L86.2505506,10.8571309 C87.4898005,9.03570784 89.4798357,8.125 92.202575,8.125 Z" id="Path"></path>
                        <path d="M122.312879,7.75757174 L129,7.75757174 L129,31.125 L122.312879,31.125 L122.312879,28.3492006 C120.735539,30.1997838 118.5194,31.125 115.664553,31.125 C112.722612,31.125 110.206471,29.9637316 108.125817,27.6505403 C106.045169,25.337349 105,22.4955274 105,19.1249849 C105,15.7544123 106.045169,12.9219966 108.125817,10.5994296 C110.206471,8.28628954 112.722612,7.125 115.664553,7.125 C118.5194,7.125 120.735539,8.0502539 122.312879,9.90076922 L122.312879,7.75757174 Z M113.167772,23.1658494 C114.145184,24.166735 115.422614,24.667027 117.000031,24.667027 C118.577447,24.667027 119.854893,24.166735 120.832259,23.1658494 C121.809657,22.1650995 122.303299,20.8149893 122.303299,19.1249849 C122.303299,17.4255295 121.809657,16.0754192 120.832259,15.0840752 C119.854893,14.0832952 118.567775,13.5828976 117.000031,13.5828976 C115.422614,13.5828976 114.145184,14.0832952 113.167772,15.0840752 C112.190343,16.0848553 111.696793,17.4349806 111.696793,19.1249849 C111.696793,20.8149893 112.190343,22.1650995 113.167772,23.1658494 Z" id="Shape" fill-rule="nonzero"></path>
                    </g>
                </g>
            </g>
        </g>
    </g>
</svg>